<svg viewBox="0 0 320 520" xmlns="http://www.w3.org/2000/svg">
    <rect width="320" height="520" fill="#ffffff" rx="8"/>
    <rect width="320" height="520" fill="none" stroke="#e0e0e0" stroke-width="0.5" rx="8"/>

    <rect width="320" height="52" fill="#ffffff"/>
    <text x="16" y="22" font-family="sans-serif" font-size="13" fill="#888">&#8592;</text>
    <text x="36" y="22" font-family="sans-serif" font-size="15" font-weight="500" fill="#111">Settings</text>
    <line x1="0" y1="52" x2="320" y2="52" stroke="#e0e0e0" stroke-width="0.5"/>

    <text x="16" y="76" font-family="sans-serif" font-size="10" font-weight="500" fill="#888" letter-spacing="0.8">THEME</text>
    <circle cx="28" cy="98" r="7" fill="none" stroke="#bbb" stroke-width="1.5"/>
    <text x="42" y="102" font-family="sans-serif" font-size="13" fill="#888">Light</text>
    <circle cx="28" cy="122" r="7" fill="none" stroke="#1a73e8" stroke-width="1.5"/>
    <circle cx="28" cy="122" r="3.5" fill="#1a73e8"/>
    <text x="42" y="126" font-family="sans-serif" font-size="13" font-weight="500" fill="#111">System</text>
    <circle cx="28" cy="146" r="7" fill="none" stroke="#bbb" stroke-width="1.5"/>
    <text x="42" y="150" font-family="sans-serif" font-size="13" fill="#888">Dark</text>

    <line x1="0" y1="166" x2="320" y2="166" stroke="#e0e0e0" stroke-width="0.5"/>

    <text x="16" y="190" font-family="sans-serif" font-size="10" font-weight="500" fill="#888" letter-spacing="0.8">CREDITS</text>
    <text x="16" y="212" font-family="sans-serif" font-size="13" fill="#111">Icons by [Designer Name]</text>
    <text x="16" y="230" font-family="sans-serif" font-size="12" fill="#888">via [Icon Website]</text>

    <line x1="0" y1="250" x2="320" y2="250" stroke="#e0e0e0" stroke-width="0.5"/>

    <line x1="308" y1="56" x2="308" y2="250" stroke="#bbb" stroke-width="1" stroke-dasharray="4 3"/>
    <text x="282" y="160" font-family="sans-serif" font-size="9" fill="#aaa" transform="rotate(-90, 282, 160)">scrollable</text>

    <rect x="0" y="250" width="320" height="210" fill="#fafafa"/>

    <line x1="0" y1="460" x2="320" y2="460" stroke="#e0e0e0" stroke-width="0.5"/>

    <text x="16" y="484" font-family="sans-serif" font-size="13" fill="#888">Made by [Your Name]</text>
    <text x="16" y="502" font-family="sans-serif" font-size="11" fill="#bbb">v1.6</text>

    <line x1="308" y1="462" x2="308" y2="518" stroke="#555" stroke-width="1"/>
    <text x="282" y="495" font-family="sans-serif" font-size="9" fill="#888" transform="rotate(-90, 282, 495)">sticky</text>
</svg>